<svg version="1.1" xmlns="http://www.w3.org/2000/svg" xmlns:xlink="http://www.w3.org/1999/xlink" x="0px" y="0px" viewBox="0 0 512 512" style="enable-background:new 0 0 512 512;" xml:space="preserve">
    <path id="repeat-2-icon" d="M152.2,348.7h-13.3c-51.1,0-92.5-41.4-92.5-92.5s41.4-92.5,92.5-92.5h41.1v-45.4l106,65l-106,65v-44.6
    h-41.1c-28.9,0-52.5,23.6-52.5,52.5s23.6,52.5,52.5,52.5h13.5C149.8,321.8,149.7,335.4,152.2,348.7z M365.8,163.7h-49.6v40h49.6
    c28.9,0,52.5,23.6,52.5,52.5s-23.6,52.5-52.5,52.5h-3c2.5,13.2,2.6,26.8,0.2,40h2.8c51.1,0,92.5-41.4,92.5-92.5
    S416.9,163.7,365.8,163.7z M334.8,329.1c0,42.6-34.6,77.2-77.2,77.2c-42.6,0-77.2-34.6-77.2-77.2c0-42.6,34.6-77.2,77.2-77.2
    C300.3,251.9,334.8,286.5,334.8,329.1z M274,291.9h-17.3l-24,11.1l3.5,15.8l17.2-8.2h0.3v62.3H274L274,291.9L274,291.9z"/>
</svg>
