<?xml version="1.0" encoding="utf-8"?>

<!-- License Agreement at http://iconmonstr.com/license/ -->

<!DOCTYPE svg PUBLIC "-//W3C//DTD SVG 1.1//EN" "http://www.w3.org/Graphics/SVG/1.1/DTD/svg11.dtd">
<svg version="1.1" xmlns="http://www.w3.org/2000/svg" xmlns:xlink="http://www.w3.org/1999/xlink" x="0px" y="0px"
	 width="512px" height="512px" viewBox="0 0 512 512" enable-background="new 0 0 512 512" xml:space="preserve">
<path id="repeat-2-icon" d="M155.836,342.356H142.5c-51.087,0-92.5-41.414-92.5-92.5s41.413-92.5,92.5-92.5h41.091V111.97
	l105.996,64.99l-105.996,64.988v-44.592H142.5c-28.948,0-52.5,23.551-52.5,52.5s23.552,52.5,52.5,52.5h13.506
	C153.48,315.495,153.408,329.097,155.836,342.356z M369.5,157.356h-49.584v40H369.5c28.948,0,52.5,23.551,52.5,52.5
	s-23.552,52.5-52.5,52.5h-2.95c2.528,13.152,2.596,26.76,0.169,40h2.781c51.087,0,92.5-41.414,92.5-92.5
	S420.587,157.356,369.5,157.356z M338.493,322.813c0,42.646-34.569,77.217-77.216,77.217c-42.645,0-77.215-34.57-77.215-77.217
	c0-42.645,34.57-77.215,77.215-77.215C303.924,245.599,338.493,280.169,338.493,322.813z M277.632,285.579h-17.309l-23.954,11.076
	l3.461,15.785l17.169-8.17h0.277v62.311h20.354V285.579z"/>
</svg>
