<?xml version="1.0" encoding="utf-8"?>

<!-- License Agreement at http://iconmonstr.com/license/ -->

<!DOCTYPE svg PUBLIC "-//W3C//DTD SVG 1.1//EN" "http://www.w3.org/Graphics/SVG/1.1/DTD/svg11.dtd">
<svg version="1.1" xmlns="http://www.w3.org/2000/svg" xmlns:xlink="http://www.w3.org/1999/xlink" x="0px" y="0px"
	 width="512px" height="512px" viewBox="0 0 512 512" enable-background="new 0 0 512 512" xml:space="preserve">
<path id="shuffle-icon" d="M102.319,187.959H50v-40h52.319c38.263,0,75.373,15.736,102.147,44.485
	c-1.163,1.716-22.359,35.536-22.359,35.536C163.371,202.782,134.117,187.959,102.319,187.959z M462,342.987l-88.489-55.225v36.195
	h-28.664c-31.797,0-61.052-14.823-79.788-40.021c0,0-21.196,33.82-22.358,35.536c26.8,28.776,63.928,44.484,102.146,44.484h28.768
	l0.086,33.082L462,342.987z M462,169.013l-88.3-54.053l-0.086,33.082h-28.768c-47.448,0-92.504,24.248-118.344,65.592l-39.76,63.616
	c-18.312,29.299-49.872,46.791-84.424,46.791H50v40h52.319c47.448,0,92.504-24.248,118.344-65.592l39.76-63.616
	c18.312-29.299,49.872-46.791,84.424-46.791h28.664l-0.095,36.195L462,169.013z"/>
</svg>
