<?xml version="1.0" encoding="utf-8"?>

<!-- The icon can be used freely in both personal and commercial projects with no attribution required, but always appreciated. 
You may NOT sub-license, resell, rent, redistribute or otherwise transfer the icon without express written permission from iconmonstr.com -->

<!DOCTYPE svg PUBLIC "-//W3C//DTD SVG 1.1//EN" "http://www.w3.org/Graphics/SVG/1.1/DTD/svg11.dtd">
<svg version="1.1" xmlns="http://www.w3.org/2000/svg" xmlns:xlink="http://www.w3.org/1999/xlink" x="0px" y="0px"
	 width="512px" height="512px" viewBox="0 0 512 512" enable-background="new 0 0 512 512" xml:space="preserve">
<path id="audio-4-icon" d="M135.704,333.428H77.983C62.529,333.428,50,320.898,50,305.443v-98.886
	c0-15.455,12.529-27.984,27.983-27.984h57.721V333.428z M167.154,171.633v168.736l135.238,77.863V93.768L167.154,171.633z
	 M339.991,196.806c15.102,15.134,24.425,36.036,24.385,59.11c-0.026,23.066-9.407,43.943-24.544,59.041l24.828,24.914
	c21.512-21.453,34.856-51.133,34.902-83.915c0.049-32.788-13.195-62.474-34.646-83.984L339.991,196.806z M383.61,153.345
	c26.229,26.295,42.393,62.565,42.331,102.636c-0.054,40.068-16.371,76.35-42.666,102.58l25.443,25.545
	c32.829-32.752,53.212-78.061,53.281-128.091c0.077-50.026-20.1-95.293-52.839-128.119L383.61,153.345z"/>
</svg>
